<?xml version="1.0"?>
<svg width="256" height="256" xmlns="http://www.w3.org/2000/svg" xmlns:svg="http://www.w3.org/2000/svg" enable-background="new 0 0 256 256" version="1.1" xml:space="preserve">
 <metadata>Svg Vector Icons : http://www.onlinewebfonts.com/icon</metadata>
 <g class="layer">
  <title>Layer 1</title>
  <g id="svg_1">
   <g id="svg_2">
    <path d="m236.7,82c-5.9,-14.1 -14.4,-26.7 -25.3,-37.5c-10.8,-10.8 -23.5,-19.4 -37.5,-25.3c-14.6,-6.1 -30,-9.3 -45.9,-9.3s-31.4,3.1 -45.9,9.3c-14.1,5.9 -26.7,14.5 -37.5,25.3c-10.9,10.8 -19.4,23.5 -25.3,37.5c-6.2,14.6 -9.3,30 -9.3,46s3.1,31.4 9.3,46c5.9,14.1 14.4,26.7 25.3,37.5c10.8,10.8 23.5,19.4 37.5,25.3c14.5,6.2 30,9.3 45.9,9.3c15.9,0 31.4,-3.1 45.9,-9.3c14.1,-5.9 26.7,-14.5 37.5,-25.3c10.8,-10.8 19.3,-23.5 25.3,-37.5c6.1,-14.6 9.3,-30 9.3,-46s-3.1,-31.4 -9.3,-46zm-39.2,115.6c-0.7,0.7 -1.4,1.4 -2.2,2.1c-7.9,-15.1 -33.2,-41.8 -67.6,-41.8c-35.8,0 -60.2,25.8 -67.5,41.5c-0.6,-0.6 -1.2,-1.2 -1.8,-1.8c-18.5,-18.6 -28.7,-43.3 -28.7,-69.6c0,-26.3 10.2,-51 28.8,-69.6c18.5,-18.6 43.2,-28.9 69.5,-28.9c26.3,0 51,10.2 69.5,28.8c18.6,18.6 28.8,43.3 28.8,69.6c0,26.4 -10.2,51.1 -28.8,69.7z" fill="#ffffff" id="svg_3"/>
    <path d="m128.1,73.2c-20,0 -38.5,17.2 -38.5,38.4c0,21.2 18.6,38.4 38.5,38.4c20,0 37.7,-17.2 37.7,-38.4c0.1,-21.3 -17.7,-38.4 -37.7,-38.4z" fill="#ffffff" id="svg_4"/>
   </g>
  </g>
 </g>
</svg>